<svg width="20" height="20" viewBox="0 0 20 20" fill="none" xmlns="http://www.w3.org/2000/svg">
<g clip-path="url(#clip0_1010_93152)">
<path d="M8.41669 1.81781C9.46254 1.61542 10.5375 1.61542 11.5834 1.81781" stroke="white" stroke-width="1.66667" stroke-linecap="round" stroke-linejoin="round"/>
<path d="M11.5834 18.1816C10.5375 18.384 9.46254 18.384 8.41669 18.1816" stroke="white" stroke-width="1.66667" stroke-linecap="round" stroke-linejoin="round"/>
<path d="M14.6742 3.10156C15.5588 3.70092 16.3198 4.46479 16.9159 5.35156" stroke="white" stroke-width="1.66667" stroke-linecap="round" stroke-linejoin="round"/>
<path d="M1.8183 11.5827C1.6159 10.5368 1.6159 9.46187 1.8183 8.41602" stroke="white" stroke-width="1.66667" stroke-linecap="round" stroke-linejoin="round"/>
<path d="M16.8992 14.6738C16.2998 15.5584 15.5359 16.3194 14.6492 16.9155" stroke="white" stroke-width="1.66667" stroke-linecap="round" stroke-linejoin="round"/>
<path d="M18.1816 8.41602C18.384 9.46187 18.384 10.5368 18.1816 11.5827" stroke="white" stroke-width="1.66667" stroke-linecap="round" stroke-linejoin="round"/>
<path d="M3.10083 5.32565C3.70018 4.44109 4.46405 3.68005 5.35083 3.08398" stroke="white" stroke-width="1.66667" stroke-linecap="round" stroke-linejoin="round"/>
<path d="M5.32583 16.8984C4.44128 16.2991 3.68023 15.5352 3.08417 14.6484" stroke="white" stroke-width="1.66667" stroke-linecap="round" stroke-linejoin="round"/>
</g>
<defs>
<clipPath id="clip0_1010_93152">
<rect width="20" height="20" fill="white"/>
</clipPath>
</defs>
</svg>
