<svg width="24" height="25" viewBox="0 0 24 25" fill="none" xmlns="http://www.w3.org/2000/svg">
<path d="M4.00009 15.3983C3.25714 14.6392 2.69666 13.721 2.36113 12.7132C2.0256 11.7054 1.9238 10.6345 2.06346 9.58159C2.20311 8.52864 2.58055 7.52129 3.16719 6.63582C3.75383 5.75036 4.53428 5.01 5.44943 4.47084C6.36458 3.93168 7.39042 3.60784 8.44926 3.52387C9.5081 3.43989 10.5722 3.59798 11.5609 3.98615C12.5496 4.37432 13.4369 4.9824 14.1558 5.76432C14.8747 6.54625 15.4062 7.48152 15.7101 8.49929H17.5001C18.4656 8.49918 19.4056 8.80961 20.1811 9.38473C20.9566 9.95985 21.5266 10.7692 21.8069 11.6931C22.0871 12.617 22.0628 13.6066 21.7374 14.5157C21.4121 15.4247 20.803 16.205 20.0001 16.7413M12 12.4993V21.4993M12 12.4993L16 16.4993M12 12.4993L8 16.4993" stroke="white" stroke-opacity="0.6" stroke-width="2" stroke-linecap="round" stroke-linejoin="round"/>
</svg>
