<svg width="12" height="12" viewBox="0 0 12 12" fill="none" xmlns="http://www.w3.org/2000/svg">
<path d="M1 2.75C1.55228 2.75 2 2.30228 2 1.75C2 1.19772 1.55228 0.75 1 0.75C0.447715 0.75 0 1.19772 0 1.75C0 2.30228 0.447715 2.75 1 2.75Z" fill="currentColor"/>
<path d="M4.25 1C3.83579 1 3.5 1.33579 3.5 1.75C3.5 2.16421 3.83579 2.5 4.25 2.5H11.25C11.6642 2.5 12 2.16421 12 1.75C12 1.33579 11.6642 1 11.25 1H4.25Z" fill="currentColor"/>
<path d="M4.25 5.25C3.83579 5.25 3.5 5.58579 3.5 6C3.5 6.41421 3.83579 6.75 4.25 6.75H11.25C11.6642 6.75 12 6.41421 12 6C12 5.58579 11.6642 5.25 11.25 5.25H4.25Z" fill="currentColor"/>
<path d="M4.25 9.5C3.83579 9.5 3.5 9.83579 3.5 10.25C3.5 10.6642 3.83579 11 4.25 11H11.25C11.6642 11 12 10.6642 12 10.25C12 9.83579 11.6642 9.5 11.25 9.5H4.25Z" fill="currentColor"/>
<path d="M2 10.25C2 10.8023 1.55228 11.25 1 11.25C0.447715 11.25 0 10.8023 0 10.25C0 9.69771 0.447715 9.25 1 9.25C1.55228 9.25 2 9.69771 2 10.25Z" fill="currentColor"/>
<path d="M1 7C1.55228 7 2 6.55229 2 6C2 5.44772 1.55228 5 1 5C0.447715 5 0 5.44772 0 6C0 6.55229 0.447715 7 1 7Z" fill="currentColor"/>
</svg>
