<svg width="38" height="39" viewBox="0 0 38 39" fill="none" xmlns="http://www.w3.org/2000/svg">
<path fill-rule="evenodd" clip-rule="evenodd" d="M2.16406 0.756836H36.4422C37.2992 0.756836 38.0003 1.45798 38.0003 2.31493V36.5931C38.0003 37.4501 37.2992 38.1512 36.4422 38.1512H2.16406C1.3071 38.1512 0.605957 37.4501 0.605957 36.5931V2.31493C0.605957 1.45798 1.3071 0.756836 2.16406 0.756836ZM6.13721 32.6204H11.6685V14.7802H6.13721V32.6204ZM8.9418 12.3649C7.14998 12.3649 5.7477 10.9626 5.7477 9.17081C5.7477 7.37899 7.14998 5.97671 8.9418 5.97671C10.7336 5.97671 12.1359 7.37899 12.1359 9.17081C12.1359 10.8847 10.7336 12.3649 8.9418 12.3649ZM26.9373 32.6204H32.3906V22.8043C32.3906 17.9742 31.3779 14.3127 25.7687 14.3127C23.1199 14.3127 21.2502 15.7929 20.5491 17.1952H20.4712V14.7801H15.1736V32.6204H20.7049V23.8171C20.7049 21.4799 21.1723 19.2207 24.0548 19.2207C26.9373 19.2207 26.9373 21.8695 26.9373 23.9729V32.6204Z" fill="white"/>
</svg>
