<svg width="38" height="39" viewBox="0 0 38 39" fill="none" xmlns="http://www.w3.org/2000/svg">
<path d="M36.012 0.756836H1.73388C0.873365 0.756836 0.175781 1.45442 0.175781 2.31493V36.5931C0.175781 37.4536 0.873365 38.1512 1.73388 38.1512H20.1493V23.6702H15.2761V18.0266H20.1493V13.8646C20.1493 9.03471 23.0992 6.40472 27.4079 6.40472C29.4717 6.40472 31.2455 6.55838 31.7624 6.62707V11.6746L28.7742 11.676C26.4309 11.676 25.9772 12.7895 25.9772 14.4234V18.0266H31.5657L30.8381 23.6702H25.9772V38.1512H36.012C36.8726 38.1512 37.5701 37.4536 37.5701 36.5931V2.31493C37.5701 1.45442 36.8726 0.756836 36.012 0.756836Z" fill="white"/>
</svg>
