<svg width="66" height="24" viewBox="0 0 66 24" fill="none" xmlns="http://www.w3.org/2000/svg">
<path d="M6.48942 0V19.1861H10.4376V23.9861H0V0H6.48942Z" fill="white"/>
<path d="M27.4799 0L23.7614 10.8275L27.8388 23.9861H21.1341L18.4923 13.7103V23.9861H12.0029V0H18.4923V9.3241L21.3781 0H27.4799Z" fill="white"/>
<path d="M28.958 0H33.5523C36.6104 0 38.6921 0.110344 39.7689 0.344826C40.8457 0.579308 41.7358 1.15862 42.425 2.08275C43.1141 3.02068 43.4443 4.51032 43.4443 6.55169C43.4443 8.41375 43.2003 9.66892 42.7265 10.3172C42.2527 10.9655 41.2908 11.3517 39.8694 11.4758C41.1616 11.7793 42.023 12.193 42.4537 12.7034C42.8988 13.2137 43.1716 13.6827 43.2864 14.1241C43.4013 14.5654 43.4443 15.7379 43.4443 17.6689V23.9999H37.4144V16.0275C37.4144 14.7448 37.3139 13.9448 37.0985 13.6413C36.8831 13.3379 36.3376 13.1861 35.4474 13.1861V23.9999H28.958V0ZM35.4474 4.11032V9.44823C36.1796 9.44823 36.6821 9.35168 36.9836 9.15858C37.2851 8.96548 37.4287 8.34479 37.4287 7.28272V5.95859C37.4287 5.19997 37.2851 4.70342 36.998 4.45515C36.7109 4.22067 36.194 4.11032 35.4474 4.11032Z" fill="white"/>
<path d="M60.3288 19.5447V20.3723H65.9999V19.5447H60.3288ZM60.3288 23.9861H65.9999V22.9792H60.3288V23.9861ZM60.3288 21.2689V22.0964H65.9999V21.2689H60.3288ZM57.5579 0L56.0647 11.1999L55.1459 5.10342C54.8731 3.14481 54.629 1.44827 54.3706 0H45.9717V23.9861H51.6427L51.6571 8.16548L54.026 23.9861H58.046L60.3001 7.79307V18.6482H65.9712V0H57.5579Z" fill="white"/>
</svg>
