<svg width="194" height="74" viewBox="0 0 194 74" fill="none" xmlns="http://www.w3.org/2000/svg">
<path d="M19.6729 0.5V58.8694H31.2125V73.4722H0.706055V0.5H19.6729Z" fill="white"/>
<path d="M81.0213 0.5L70.1531 33.4403L82.0704 73.4722H62.4741L54.753 42.2104V73.4722H35.7861V0.5H54.753V28.8664L63.1874 0.5H81.0213Z" fill="white"/>
<path d="M85.3438 0.5H98.7716C107.71 0.5 113.794 0.835697 116.941 1.54905C120.088 2.26241 122.69 4.02482 124.704 6.83629C126.718 9.68971 127.684 14.2216 127.684 20.432C127.684 26.0969 126.97 29.9155 125.585 31.8877C124.201 33.8599 121.389 35.0348 117.235 35.4125C121.012 36.3357 123.529 37.5945 124.788 39.1471C126.089 40.6997 126.886 42.1265 127.222 43.4692C127.558 44.812 127.684 48.3788 127.684 54.2535V73.5141H110.059V49.26C110.059 45.3575 109.766 42.9237 109.136 42.0006C108.507 41.0774 106.912 40.6158 104.311 40.6158V73.5141H85.3438V0.5ZM104.311 13.0047V29.2441C106.451 29.2441 107.919 28.9503 108.801 28.3629C109.682 27.7754 110.101 25.8871 110.101 22.656V18.6276C110.101 16.3197 109.682 14.8091 108.843 14.0538C108.003 13.3404 106.493 13.0047 104.311 13.0047Z" fill="white"/>
<path d="M177.032 59.9604V62.4781H193.607V59.9604H177.032ZM177.032 73.4722H193.607V70.4089H177.032V73.4722ZM177.032 65.2056V67.7234H193.607V65.2056H177.032ZM168.933 0.5L164.569 34.5733L161.883 16.026C161.086 10.0674 160.373 4.90603 159.617 0.5H135.069V73.4722H151.644L151.686 25.3416L158.61 73.4722H170.36L176.948 24.2086V57.2328H193.523V0.5H168.933Z" fill="white"/>
</svg>
