<svg width="20" height="20" viewBox="0 0 20 20" fill="none" xmlns="http://www.w3.org/2000/svg">
<path d="M11.6666 4.16667C11.6666 3.25 10.9166 2.5 9.99996 2.5C9.08329 2.5 8.33329 3.25 8.33329 4.16667C8.33329 5.08333 9.08329 5.83333 9.99996 5.83333C10.9166 5.83333 11.6666 5.08333 11.6666 4.16667Z" stroke="white" stroke-width="1.5"/>
<path d="M11.6666 15.8337C11.6666 14.917 10.9166 14.167 9.99996 14.167C9.08329 14.167 8.33329 14.917 8.33329 15.8337C8.33329 16.7503 9.08329 17.5003 9.99996 17.5003C10.9166 17.5003 11.6666 16.7503 11.6666 15.8337Z" stroke="white" stroke-width="1.5"/>
<path d="M11.6666 9.99967C11.6666 9.08301 10.9166 8.33301 9.99996 8.33301C9.08329 8.33301 8.33329 9.08301 8.33329 9.99967C8.33329 10.9163 9.08329 11.6663 9.99996 11.6663C10.9166 11.6663 11.6666 10.9163 11.6666 9.99967Z" stroke="white" stroke-width="1.5"/>
</svg>
