<svg width="12" height="13" viewBox="0 0 12 13" fill="none" xmlns="http://www.w3.org/2000/svg">
<path d="M3.75 6.5C3.33579 6.5 3 6.83579 3 7.25C3 7.66421 3.33579 8 3.75 8C4.16421 8 4.5 7.66421 4.5 7.25C4.5 6.83579 4.16421 6.5 3.75 6.5Z" fill="currentColor"/>
<path d="M3 9.25C3 8.83579 3.33579 8.5 3.75 8.5C4.16421 8.5 4.5 8.83579 4.5 9.25C4.5 9.66421 4.16421 10 3.75 10C3.33579 10 3 9.66421 3 9.25Z" fill="currentColor"/>
<path d="M8.25 6.5C7.83579 6.5 7.5 6.83579 7.5 7.25C7.5 7.66421 7.83579 8 8.25 8C8.66421 8 9 7.66421 9 7.25C9 6.83579 8.66421 6.5 8.25 6.5Z" fill="currentColor"/>
<path d="M5.25 7.25C5.25 6.83579 5.58579 6.5 6 6.5C6.41421 6.5 6.75 6.83579 6.75 7.25C6.75 7.66421 6.41421 8 6 8C5.58579 8 5.25 7.66421 5.25 7.25Z" fill="currentColor"/>
<path d="M6 8.5C5.58579 8.5 5.25 8.83579 5.25 9.25C5.25 9.66421 5.58579 10 6 10C6.41421 10 6.75 9.66421 6.75 9.25C6.75 8.83579 6.41421 8.5 6 8.5Z" fill="currentColor"/>
<path fill-rule="evenodd" clip-rule="evenodd" d="M2.75 0C2.33579 0 2 0.335786 2 0.75V2C0.895431 2 0 2.89543 0 4V11C0 12.1046 0.895431 13 2 13H10C11.1046 13 12 12.1046 12 11V4C12 2.89543 11.1046 2 10 2V0.75C10 0.335786 9.66421 0 9.25 0C8.83579 0 8.5 0.335786 8.5 0.75V2H3.5V0.75C3.5 0.335786 3.16421 0 2.75 0ZM1.5 6C1.5 5.44772 1.94772 5 2.5 5H9.5C10.0523 5 10.5 5.44772 10.5 6V10.5C10.5 11.0523 10.0523 11.5 9.5 11.5H2.5C1.94772 11.5 1.5 11.0523 1.5 10.5V6Z" fill="currentColor"/>
</svg>
