<svg width="20" height="20" viewBox="0 0 20 20" fill="none" xmlns="http://www.w3.org/2000/svg">
<path d="M10 13.333V17.4997" stroke="white" stroke-width="2" stroke-linecap="round" stroke-linejoin="round"/>
<path d="M13.333 11.667V17.5003" stroke="white" stroke-width="2" stroke-linecap="round" stroke-linejoin="round"/>
<path d="M16.667 8.33301V17.4997" stroke="white" stroke-width="2" stroke-linecap="round" stroke-linejoin="round"/>
<path d="M18.3337 2.5L11.1287 9.705C11.09 9.7438 11.044 9.77459 10.9934 9.79559C10.9427 9.8166 10.8885 9.82741 10.8337 9.82741C10.7789 9.82741 10.7246 9.8166 10.674 9.79559C10.6233 9.77459 10.5774 9.7438 10.5387 9.705L7.79533 6.96167C7.71719 6.88355 7.61123 6.83967 7.50074 6.83967C7.39026 6.83967 7.2843 6.88355 7.20616 6.96167L1.66699 12.5" stroke="white" stroke-width="2" stroke-linecap="round" stroke-linejoin="round"/>
<path d="M3.33301 15V17.5" stroke="white" stroke-width="2" stroke-linecap="round" stroke-linejoin="round"/>
<path d="M6.66699 11.667V17.5003" stroke="white" stroke-width="2" stroke-linecap="round" stroke-linejoin="round"/>
</svg>
