<svg width="24" height="24" viewBox="0 0 24 24" fill="none" xmlns="http://www.w3.org/2000/svg">
<path d="M7.5 3V21" stroke="white" stroke-width="2" stroke-linecap="round" stroke-linejoin="round"/>
<path d="M3 3V21" stroke="white" stroke-width="2" stroke-linecap="round" stroke-linejoin="round"/>
<path d="M12 3V8" stroke="white" stroke-width="2" stroke-linecap="round" stroke-linejoin="round"/>
<path d="M16.5 3V8" stroke="white" stroke-width="2" stroke-linecap="round" stroke-linejoin="round"/>
<path d="M21 3V8" stroke="white" stroke-width="2" stroke-linecap="round" stroke-linejoin="round"/>
<path d="M16.61 11H16.39C16.1248 11 15.8704 11.1054 15.6829 11.2929C15.4954 11.4804 15.39 11.7348 15.39 12V12.09C15.3898 12.2654 15.3435 12.4376 15.2558 12.5894C15.168 12.7412 15.0419 12.8673 14.89 12.955L14.675 13.08C14.523 13.1678 14.3505 13.214 14.175 13.214C13.9995 13.214 13.827 13.1678 13.675 13.08L13.6 13.04C13.3705 12.9076 13.0979 12.8717 12.842 12.9402C12.5861 13.0086 12.3678 13.1758 12.235 13.405L12.125 13.595C11.9926 13.8245 11.9567 14.0971 12.0252 14.353C12.0936 14.6089 12.2608 14.8272 12.49 14.96L12.565 15.01C12.7161 15.0973 12.8418 15.2225 12.9295 15.3734C13.0172 15.5243 13.0639 15.6955 13.065 15.87V16.125C13.0657 16.3012 13.0198 16.4745 12.932 16.6273C12.8442 16.78 12.7176 16.9069 12.565 16.995L12.49 17.04C12.2608 17.1728 12.0936 17.3911 12.0252 17.647C11.9567 17.9029 11.9926 18.1755 12.125 18.405L12.235 18.595C12.3678 18.8242 12.5861 18.9914 12.842 19.0598C13.0979 19.1283 13.3705 19.0924 13.6 18.96L13.675 18.92C13.827 18.8322 13.9995 18.786 14.175 18.786C14.3505 18.786 14.523 18.8322 14.675 18.92L14.89 19.045C15.0419 19.1327 15.168 19.2588 15.2558 19.4106C15.3435 19.5624 15.3898 19.7346 15.39 19.91V20C15.39 20.2652 15.4954 20.5196 15.6829 20.7071C15.8704 20.8946 16.1248 21 16.39 21H16.61C16.8752 21 17.1296 20.8946 17.3171 20.7071C17.5046 20.5196 17.61 20.2652 17.61 20V19.91C17.6102 19.7346 17.6565 19.5624 17.7442 19.4106C17.832 19.2588 17.9581 19.1327 18.11 19.045L18.325 18.92C18.477 18.8322 18.6495 18.786 18.825 18.786C19.0005 18.786 19.173 18.8322 19.325 18.92L19.4 18.96C19.6295 19.0924 19.9021 19.1283 20.158 19.0598C20.4139 18.9914 20.6322 18.8242 20.765 18.595L20.875 18.4C21.0074 18.1705 21.0433 17.8979 20.9748 17.642C20.9064 17.3861 20.7392 17.1678 20.51 17.035L20.435 16.995C20.2824 16.9069 20.1558 16.78 20.068 16.6273C19.9802 16.4745 19.9343 16.3012 19.935 16.125V15.875C19.9343 15.6988 19.9802 15.5255 20.068 15.3727C20.1558 15.22 20.2824 15.0931 20.435 15.005L20.51 14.96C20.7392 14.8272 20.9064 14.6089 20.9748 14.353C21.0433 14.0971 21.0074 13.8245 20.875 13.595L20.765 13.405C20.6322 13.1758 20.4139 13.0086 20.158 12.9402C19.9021 12.8717 19.6295 12.9076 19.4 13.04L19.325 13.08C19.173 13.1678 19.0005 13.214 18.825 13.214C18.6495 13.214 18.477 13.1678 18.325 13.08L18.11 12.955C17.9581 12.8673 17.832 12.7412 17.7442 12.5894C17.6565 12.4376 17.6102 12.2654 17.61 12.09V12C17.61 11.7348 17.5046 11.4804 17.3171 11.2929C17.1296 11.1054 16.8752 11 16.61 11Z" stroke="white" stroke-linecap="round" stroke-linejoin="round"/>
<path d="M16.5 17.5C17.3284 17.5 18 16.8284 18 16C18 15.1716 17.3284 14.5 16.5 14.5C15.6716 14.5 15 15.1716 15 16C15 16.8284 15.6716 17.5 16.5 17.5Z" stroke="white" stroke-linecap="round" stroke-linejoin="round"/>
</svg>
