<svg width="20" height="20" viewBox="0 0 20 20" fill="none" xmlns="http://www.w3.org/2000/svg">
<g clip-path="url(#clip0_43704_4735)">
<path d="M15.0003 9.16634V4.99967C15.0003 4.55765 14.8247 4.13372 14.5122 3.82116C14.1996 3.5086 13.7757 3.33301 13.3337 3.33301C12.8916 3.33301 12.4677 3.5086 12.1551 3.82116C11.8426 4.13372 11.667 4.55765 11.667 4.99967" stroke="white" stroke-width="2" stroke-linecap="round" stroke-linejoin="round"/>
<path d="M11.6663 8.33366V3.33366C11.6663 2.89163 11.4907 2.46771 11.1782 2.15515C10.8656 1.84259 10.4417 1.66699 9.99967 1.66699C9.55765 1.66699 9.13372 1.84259 8.82116 2.15515C8.5086 2.46771 8.33301 2.89163 8.33301 3.33366V5.00033" stroke="white" stroke-width="2" stroke-linecap="round" stroke-linejoin="round"/>
<path d="M8.33333 8.74967V4.99967C8.33333 4.55765 8.15774 4.13372 7.84518 3.82116C7.53262 3.5086 7.10869 3.33301 6.66667 3.33301C6.22464 3.33301 5.80072 3.5086 5.48816 3.82116C5.17559 4.13372 5 4.55765 5 4.99967V11.6663" stroke="white" stroke-width="2" stroke-linecap="round" stroke-linejoin="round"/>
<path d="M15.0004 6.66667C15.0004 6.22464 15.176 5.80072 15.4886 5.48816C15.8011 5.17559 16.2251 5 16.6671 5C17.1091 5 17.533 5.17559 17.8456 5.48816C18.1582 5.80072 18.3337 6.22464 18.3337 6.66667V11.6667C18.3337 13.4348 17.6314 15.1305 16.3811 16.3807C15.1309 17.631 13.4352 18.3333 11.6671 18.3333H10.0004C7.66708 18.3333 6.25041 17.6167 5.00875 16.3833L2.00874 13.3833C1.72202 13.0658 1.5684 12.6501 1.57968 12.2225C1.59096 11.7948 1.76628 11.3878 2.06935 11.0858C2.37241 10.7838 2.78 10.6099 3.20772 10.6002C3.63545 10.5904 4.05055 10.7455 4.36708 11.0333L5.83374 12.5" stroke="white" stroke-width="2" stroke-linecap="round" stroke-linejoin="round"/>
</g>
<defs>
<clipPath id="clip0_43704_4735">
<rect width="20" height="20" fill="white"/>
</clipPath>
</defs>
</svg>
