<svg width="38" height="39" viewBox="0 0 38 39" fill="none" xmlns="http://www.w3.org/2000/svg">
<path fill-rule="evenodd" clip-rule="evenodd" d="M11.341 0.869019C13.3354 0.778649 13.9719 0.756836 19.0497 0.756836C24.1276 0.756836 24.764 0.778649 26.7584 0.869019C29.7983 1.00769 32.4665 1.75246 34.6089 3.89485C36.7521 6.03801 37.496 8.70703 37.6347 11.7453C37.7251 13.7397 37.7469 14.3762 37.7469 19.454C37.7469 24.5319 37.7251 25.1683 37.6347 27.1627C37.496 30.2026 36.7513 32.8708 34.6089 35.0132C32.4657 37.1564 29.7959 37.9003 26.7584 38.039C24.764 38.1294 24.1276 38.1512 19.0497 38.1512C13.9719 38.1512 13.3354 38.1294 11.341 38.039C8.30118 37.9003 5.63293 37.1556 3.49055 35.0132C1.34738 32.87 0.603393 30.201 0.464722 27.1627C0.374352 25.1683 0.352539 24.5319 0.352539 19.454C0.352539 14.3762 0.374352 13.7397 0.464722 11.7453C0.603393 8.70547 1.34816 6.03723 3.49055 3.89485C5.63371 1.75168 8.30274 1.00769 11.341 0.869019ZM26.605 4.23491C24.6332 4.14454 24.0419 4.12584 19.0498 4.12584C14.0576 4.12584 13.4663 4.14532 11.4946 4.23491C9.36698 4.33229 7.3921 4.75843 5.87295 6.27758C4.3538 7.79672 3.92766 9.77161 3.83028 11.8992C3.73991 13.871 3.72122 14.4623 3.72122 19.4544C3.72122 24.4466 3.74069 25.0379 3.83028 27.0096C3.92766 29.1372 4.3538 31.1121 5.87295 32.6313C7.3921 34.1504 9.36698 34.5765 11.4946 34.6739C13.4656 34.7643 14.0569 34.783 19.0498 34.783C24.0427 34.783 24.634 34.7635 26.605 34.6739C28.7326 34.5765 30.7075 34.1504 32.2266 32.6313C33.7458 31.1121 34.1719 29.1372 34.2693 27.0096C34.3597 25.0379 34.3784 24.4466 34.3784 19.4544C34.3784 14.4623 34.3589 13.871 34.2693 11.8992C34.1719 9.77161 33.7458 7.79672 32.2266 6.27758C30.7075 4.75843 28.7326 4.33229 26.605 4.23491Z" fill="white"/>
<path fill-rule="evenodd" clip-rule="evenodd" d="M10.5508 20.3037C10.5508 15.1409 14.7358 10.9551 19.8994 10.9551C25.0629 10.9551 29.248 15.1401 29.248 20.3037C29.248 25.4672 25.0629 29.6523 19.8994 29.6523C14.7358 29.6523 10.5508 25.4665 10.5508 20.3037ZM13.8309 20.3033C13.8309 23.6546 16.5481 26.3718 19.8994 26.3718C23.2508 26.3718 25.968 23.6546 25.968 20.3033C25.968 16.9519 23.2508 14.2347 19.8994 14.2347C16.5481 14.2347 13.8309 16.9519 13.8309 20.3033Z" fill="white"/>
<circle cx="28.3982" cy="10.1053" r="2.54962" fill="white"/>
</svg>
