<svg width="16" height="16" viewBox="0 0 16 16" fill="none" xmlns="http://www.w3.org/2000/svg">
<path d="M14.3496 14.3559C14.2563 14.4478 14.1306 14.4994 13.9996 14.4996C13.8668 14.499 13.7393 14.4476 13.6434 14.3559L10.9434 11.6496C9.80622 12.6047 8.34425 13.084 6.86236 12.9874C5.38046 12.8908 3.99306 12.2259 2.98951 11.1313C1.98596 10.0366 1.44375 8.59681 1.47597 7.11212C1.50818 5.62743 2.11233 4.21249 3.16241 3.16241C4.21249 2.11233 5.62743 1.50818 7.11212 1.47597C8.59681 1.44375 10.0366 1.98596 11.1313 2.98951C12.2259 3.99306 12.8908 5.38046 12.9874 6.86236C13.084 8.34426 12.6047 9.80623 11.6496 10.9434L14.3496 13.6434C14.3969 13.6899 14.4344 13.7453 14.46 13.8065C14.4856 13.8677 14.4988 13.9333 14.4988 13.9996C14.4988 14.0659 14.4856 14.1316 14.46 14.1927C14.4344 14.2539 14.3969 14.3093 14.3496 14.3559ZM7.24961 11.9996C8.18907 11.9996 9.10743 11.721 9.88857 11.1991C10.6697 10.6772 11.2785 9.9353 11.638 9.06736C11.9976 8.19941 12.0916 7.24434 11.9083 6.32293C11.7251 5.40152 11.2727 4.55515 10.6084 3.89085C9.94407 3.22655 9.0977 2.77416 8.17629 2.59088C7.25488 2.4076 6.29981 2.50166 5.43186 2.86118C4.56391 3.2207 3.82206 3.82952 3.30013 4.61065C2.77819 5.39178 2.49961 6.31015 2.49961 7.24961C2.50126 8.50888 3.00224 9.7161 3.89268 10.6065C4.78312 11.497 5.99034 11.998 7.24961 11.9996Z" fill="white" fill-opacity="0.6"/>
</svg>
