<svg width="20" height="20" viewBox="0 0 20 20" fill="none" xmlns="http://www.w3.org/2000/svg">
<path d="M15.0003 17.4997C15.0003 15.7316 14.2979 14.0359 13.0477 12.7856C11.7975 11.5354 10.1018 10.833 8.33366 10.833C6.56555 10.833 4.86986 11.5354 3.61961 12.7856C2.36937 14.0359 1.66699 15.7316 1.66699 17.4997" stroke="white" stroke-width="1.66667" stroke-linecap="round" stroke-linejoin="round"/>
<path d="M8.33366 10.8333C10.6348 10.8333 12.5003 8.96785 12.5003 6.66667C12.5003 4.36548 10.6348 2.5 8.33366 2.5C6.03247 2.5 4.16699 4.36548 4.16699 6.66667C4.16699 8.96785 6.03247 10.8333 8.33366 10.8333Z" stroke="white" stroke-width="1.66667" stroke-linecap="round" stroke-linejoin="round"/>
<path d="M18.3333 16.6673C18.3333 13.859 16.6667 11.2507 15 10.0007C15.5478 9.58963 15.9859 9.04989 16.2755 8.42921C16.565 7.80853 16.6971 7.12604 16.66 6.44215C16.6229 5.75826 16.4178 5.09406 16.0629 4.50832C15.7079 3.92258 15.2141 3.43337 14.625 3.08398" stroke="white" stroke-width="1.66667" stroke-linecap="round" stroke-linejoin="round"/>
</svg>
